<svg height="313" width="681" viewBox="566 92 681 313" style="background-color:transparent;" preserveAspectRatio="xMinYMin meet" xmlns:xlink="http://www.w3.org/1999/xlink" xmlns="http://www.w3.org/2000/svg"><defs><style type="text/css">.svg-txt-center tspan {text-anchor: middle;}.svg-txt-right tspan {text-anchor: end;}</style></defs><g transform="translate(0,0)"><g transform="matrix(1,0,0,1,913,352)"><path style="fill:none;stroke:#333333;stroke-width:3.0;;" d="m105.50825363416658,29.26881934366494c0,4.810975287874417 -4.558911334183951,8.710332960793401 -10.183635098483084,8.710332960793401l-85.10953362522451,0c-5.624723764299132,0 -10.183635098483084,-3.8993576729189847 -10.183635098483084,-8.710332960793401l0,-18.043706595790123c0,-4.810975287874417 4.558911334183951,-8.710332960793401 10.183635098483084,-8.710332960793401l86.5639980153146,-2.488593724047799c5.625296012583758,0 10.184207346767709,5.143889067438901 10.184207346767709,9.954864355313317l-1.4550557133175144,19.287748531187916z"/></g><text style="font-weight:bold; font-size: 12px; text-anchor: middle; font-family: arial,helvetica,sans-serif; fill: #333333;" class="svg-txt-center" y="375" x="966">Main Topic</text></g><g transform="translate(0,0)"><path style="fill:none;stroke:#333333;stroke-width:2;;" d="M1010,149 C1010,248.5 966,248.5  966,348"/><polyline style="fill:#ffffff;stroke:#333333;stroke-width:2;fill-opacity:0;" points="956,330 966,348 976,330"/><text style="font-weight:Normal; font-size: 12px; text-anchor: middle; font-family: sans-serif; fill: #333333;" class="" y="337" x="983"/><text style="font-weight:Normal; font-size: 12px; text-anchor: start; font-family: sans-serif; fill: #333333;" class="" y="248" x="988"/><text style="font-weight:Normal; font-size: 12px; text-anchor: middle; font-family: sans-serif; fill: #333333;" class="" y="165" x="1022"/></g><g transform="translate(0,0)"><path style="fill:none;stroke:#333333;stroke-width:2;;" d="M1232,246 C1232,246 1232,246  1232,246"/><text style="font-weight:Normal; font-size: 12px; text-anchor: middle; font-family: sans-serif; fill: #333333;" class="" y="230" x="1247"/><text style="font-weight:Normal; font-size: 12px; text-anchor: start; font-family: sans-serif; fill: #333333;" class="" y="246" x="1232"/><text style="font-weight:Normal; font-size: 12px; text-anchor: middle; font-family: sans-serif; fill: #333333;" class="" y="260" x="1247"/></g><g transform="translate(0,0)"><g transform="matrix(1,0,0,1,581,102)"><path style="fill:rgb(0,0,255);stroke:rgb(0,0,229);stroke-width:3.0;;" d="m13.174649224799222,1.6551882475885311l218.94773126572716,-1.6393764616162425c17.578278883028606,-0.13162225735024488 20.259802172602296,3.1292335930507758 20.608016528032795,7.8325718738985435l2.6265090581191206,35.48098377434879c0.4510366904515391,6.093029510477548 -3.032228786868106,9.809741855430813 -17.37535083046441,9.65408306040035l-226.62572142659033,-2.4590646924243638c-6.266249156471982,-0.06799067968084124 -11.447069617449817,-2.2753561661356474 -11.314148106316814,-5.100264109734292l1.8183517254856505,-38.668669335138496c0.132833321074315,-2.8249202389221066 5.046980682223462,-5.053336958520528 11.314148106316814,-5.100264109734292z"/></g><text style="font-weight:bold; font-size: 18px; text-anchor: middle; font-family: arial,helvetica,sans-serif; fill: #ffffff;" class="svg-txt-center" y="136" x="708">Hidupku yang indah :)</text></g><g transform="translate(0,0)"><g transform="matrix(1,0,0,1,967,109)"><path style="fill:none;stroke:#333333;stroke-width:3.0;;" d="m85.78708473058404,29.26881934366494c0,4.810975287874417 -3.7067783745233993,8.710332960793401 -8.280151902504937,8.710332960793401l-69.20120958312647,0c-4.573373527981537,0 -8.280151902504937,-3.8993576729189847 -8.280151902504937,-8.710332960793401l0,-18.043706595790123c0,-4.810975287874417 3.7067783745233993,-8.710332960793401 8.280151902504937,-8.710332960793401l70.38381147039597,-2.488593724047799c4.573838813969971,0 8.28061718849337,5.143889067438901 8.28061718849337,9.954864355313317l-1.1830826827908762,19.287748531187916z"/></g><text style="font-weight:bold; font-size: 12px; text-anchor: middle; font-family: arial,helvetica,sans-serif; fill: #333333;" class="svg-txt-center" y="132" x="1010">Rumah</text></g><g transform="translate(0,0)"><path style="fill:none;stroke:#333333;stroke-width:2;;" d="M838,128 C900.5,128 900.5,128  963,128"/><polyline style="fill:#ffffff;stroke:#333333;stroke-width:2;fill-opacity:0;" points="945,138 963,128 945,118"/><text style="font-weight:Normal; font-size: 12px; text-anchor: middle; font-family: sans-serif; fill: #333333;" class="" y="113" x="949"/><text style="font-weight:Normal; font-size: 12px; text-anchor: start; font-family: sans-serif; fill: #333333;" class="" y="128" x="900"/><text style="font-weight:Normal; font-size: 12px; text-anchor: middle; font-family: sans-serif; fill: #333333;" class="" y="113" x="852"/></g><text style="font-weight:Normal; font-size: 16px; text-anchor: end; font-family: Arial; fill: #ccc;" y="390" x="1232">www.sketchboard.io</text></svg>